<?xml version="1.0" standalone="no"?>
<!DOCTYPE svg PUBLIC "-//W3C//DTD SVG 20010904//EN"
 "http://www.w3.org/TR/2001/REC-SVG-20010904/DTD/svg10.dtd">
<svg version="1.0" xmlns="http://www.w3.org/2000/svg"
 width="1024.000000pt" height="1024.000000pt" viewBox="0 0 1024.000000 1024.000000"
 preserveAspectRatio="xMidYMid meet">
<metadata>
Created by potrace 1.11, written by Peter Selinger 2001-2013
</metadata>
<g transform="translate(0.000000,1024.000000) scale(0.100000,-0.100000)"
fill="#000000" stroke="none">
<path d="M4780 10214 c-171 -12 -560 -71 -760 -115 -1582 -349 -2909 -1436
-3570 -2924 -113 -255 -203 -517 -279 -815 l-57 -225 41 -130 c236 -730 682
-1322 1315 -1741 194 -129 371 -223 577 -305 219 -87 545 -182 562 -163 5 5
21 88 36 184 120 770 483 1546 1003 2145 716 826 1659 1340 2747 1496 212 30
234 31 575 33 287 1 383 -2 500 -17 404 -50 644 -107 1021 -243 513 -184 1023
-489 1434 -858 82 -74 151 -133 153 -131 2 1 -24 92 -57 201 -278 921 -836
1771 -1571 2394 -763 647 -1673 1048 -2675 1180 -211 28 -259 31 -585 34 -195
2 -380 2 -410 0z"/>
<path d="M6330 6461 c-340 -71 -646 -186 -951 -357 -422 -235 -836 -618 -1106
-1024 -198 -297 -347 -623 -437 -955 -42 -157 -81 -353 -72 -362 10 -10 233
35 386 78 424 119 797 309 1155 588 141 110 416 385 526 526 283 363 479 749
593 1170 30 111 76 326 76 356 0 13 -20 11 -170 -20z"/>
<path d="M7612 6258 c-187 -1165 -872 -2232 -1870 -2911 -1054 -718 -2389
-942 -3622 -608 -363 98 -796 286 -1129 488 -188 115 -468 318 -591 429 -41
37 -109 98 -151 136 l-77 68 63 -208 c204 -668 543 -1291 995 -1822 721 -849
1723 -1450 2808 -1684 117 -25 319 -60 450 -78 233 -31 244 -31 647 -32 l410
0 260 37 c615 87 1167 262 1685 531 1299 677 2257 1891 2600 3296 l53 214 -23
80 c-53 189 -170 467 -273 650 -155 278 -309 478 -552 722 -380 380 -760 618
-1260 790 -114 40 -350 104 -380 104 -6 0 -25 -87 -43 -202z"/>
</g>
</svg>
